<?xml version="1.0" standalone="no"?>
<!DOCTYPE svg PUBLIC "-//W3C//DTD SVG 20010904//EN"
 "http://www.w3.org/TR/2001/REC-SVG-20010904/DTD/svg10.dtd">
<svg version="1.0" xmlns="http://www.w3.org/2000/svg"
 width="512.000000pt" height="512.000000pt" viewBox="0 0 512.000000 512.000000"
 preserveAspectRatio="xMidYMid meet">

<g transform="translate(0.000000,512.000000) scale(0.100000,-0.100000)"
fill="#007bff" stroke="none">
<path d="M438 5110 c-201 -34 -350 -163 -411 -355 l-22 -70 0 -2125 0 -2125
22 -70 c61 -192 219 -327 418 -355 51 -7 223 -10 478 -8 l398 3 138 245 c76
135 235 407 353 605 234 391 633 1088 971 1695 26 48 2 26 -192 -172 -512
-523 -891 -806 -1002 -747 -13 6 -27 17 -31 23 -42 63 79 364 286 711 53 88
96 163 96 168 0 23 -35 -4 -114 -91 -190 -207 -492 -492 -688 -649 -209 -167
-333 -208 -392 -129 -19 24 -21 41 -21 144 1 232 91 514 260 815 272 485 712
920 1081 1068 174 70 357 96 464 64 30 -9 61 -17 69 -18 9 -1 38 38 74 103
274 486 395 696 554 962 101 169 183 309 183 312 0 9 -2920 5 -2972 -4z"/>
<path d="M3680 4988 c-362 -658 -942 -1693 -1237 -2207 -205 -355 -283 -511
-290 -575 -6 -46 -5 -46 24 -46 17 0 48 12 69 26 66 45 235 208 401 387 285
306 381 419 419 492 352 669 627 1051 729 1011 49 -19 -28 -247 -211 -624 -52
-106 -94 -195 -94 -198 0 -17 26 7 85 77 333 395 636 559 764 414 85 -98 88
-350 7 -622 -106 -354 -258 -648 -507 -979 -119 -158 -252 -289 -387 -378
-184 -123 -327 -174 -507 -183 -102 -5 -116 -3 -185 21 -127 46 -122 46 -168
-21 -127 -188 -540 -939 -781 -1421 l-81 -162 1441 0 c985 0 1463 3 1512 11
192 29 351 166 410 354 l22 70 0 2125 0 2125 -22 70 c-51 163 -169 283 -333
337 -62 21 -84 22 -536 26 l-471 3 -73 -133z"/>
<path d="M2405 3646 c-137 -36 -242 -110 -441 -310 -276 -277 -480 -556 -629
-861 -65 -132 -85 -192 -92 -266 -4 -44 -2 -59 12 -73 22 -21 64 -14 115 18
148 96 554 524 770 811 162 216 377 552 412 647 15 37 -65 56 -147 34z"/>
<path d="M3860 3453 c-50 -24 -224 -201 -312 -318 -98 -131 -263 -374 -375
-555 -148 -237 -431 -742 -438 -781 -9 -47 7 -77 50 -95 62 -25 163 -11 257
37 63 32 187 139 265 228 151 172 386 559 511 838 212 478 229 735 42 646z"/>
</g>
</svg>
